<svg id="ART" xmlns="http://www.w3.org/2000/svg" viewBox="0 0 92.62 145.22"><defs><style>.cls-1{fill:#ccc;stroke:#939393;stroke-linejoin:round;stroke-width:4px;}.cls-2{fill:#bf7d47;stroke:#70482a;stroke-linecap:round;stroke-miterlimit:10;stroke-width:3px;}.cls-3{fill:#212121;}.cls-4{fill:#70482a;}.cls-5{fill:#965d32;}</style></defs><title>iconfinder_icon_animal_ganco_3316541</title><path class="cls-1" d="M98.15,150s-6-54.85-1.27-66.34H53.12C57.89,95.15,51.85,150,51.85,150" transform="translate(-28.69 -5)"/><path class="cls-1" d="M119.31,68.88c0,19.55-19.84,31.71-44.31,31.71S30.69,88.43,30.69,68.88c0-15.09,8.17-21.3,11.58-30.53C45.91,28.48,55.42,7,75,7s29.09,21.47,32.73,31.34C111.13,47.58,119.31,53.79,119.31,68.88Z" transform="translate(-28.69 -5)"/><path id="_Path_" data-name=" Path " class="cls-2" d="M75,50c3.81,0,8.15-3.65,11.16-1.38,1.47,1.11,1.41,14.19,4.57,24.55C94,84,96.93,93.5,96.77,96.4c-.33,5.66-15.3,22.73-21.77,22.73S53.56,102.06,53.23,96.4c-.17-2.9,2.72-12.39,6-23.26,3.16-10.36,3.1-23.44,4.57-24.55C66.85,46.32,71.19,50,75,50Z" transform="translate(-28.69 -5)"/><ellipse class="cls-3" cx="67.07" cy="38.65" rx="2.33" ry="4"/><ellipse class="cls-3" cx="25.55" cy="38.65" rx="2.33" ry="4"/><path class="cls-4" d="M68.25,70.51c-.62,2.19-.56,4.08.13,4.23s1.76-1.5,2.38-3.69.56-4.08-.13-4.23S68.87,68.32,68.25,70.51Z" transform="translate(-28.69 -5)"/><path class="cls-4" d="M81.75,70.51c.62,2.19.56,4.08-.13,4.23s-1.76-1.5-2.38-3.69-.56-4.08.13-4.23S81.13,68.32,81.75,70.51Z" transform="translate(-28.69 -5)"/><path class="cls-5" d="M89.42,106.19C84.65,111.9,78.23,117.63,75,117.63s-9.65-5.73-14.42-11.44a19.7,19.7,0,0,1,27.84-1C88.77,105.51,89.1,105.85,89.42,106.19Z" transform="translate(-28.69 -5)"/></svg>