<svg id="ART" xmlns="http://www.w3.org/2000/svg" viewBox="0 0 144 141.31"><defs><style>.cls-1,.cls-2{fill:#444;}.cls-1{stroke:#2d2d2d;stroke-width:4px;}.cls-1,.cls-4,.cls-5,.cls-6{stroke-miterlimit:10;}.cls-3{fill:#bcbcbc;}.cls-4{fill:#333;}.cls-4,.cls-5,.cls-6{stroke:#1e1e1e;stroke-width:2px;}.cls-5,.cls-6{fill:none;}.cls-6{stroke-linecap:round;}.cls-7{fill:#7f7f7f;}.cls-8{fill:#fff797;}.cls-9{fill:#212121;}</style></defs><title>iconfinder_icon_animal_gato_3316542</title><path id="_Path_" data-name=" Path " class="cls-1" d="M145,87.68c0,30.91-47.38,56-70,56s-70-25.05-70-56a45.34,45.34,0,0,1,.9-9C5.66,49.25,25,13,32.09,6.8c4-3.53,23,15.42,26.88,26.4l1.61-.29S70.06,28.68,75,28.68,89.36,32.9,89.36,32.9c.56.09,1.13.19,1.68.3C95,22.2,113.88,3.27,117.92,6.8c7,6.16,26.45,42.51,26.19,72A44.88,44.88,0,0,1,145,87.68Z" transform="translate(-3 -4.37)"/><path class="cls-2" d="M134.12,110.19C119.73,128.48,91.25,141.64,75,141.64s-44.73-13.16-59.12-31.45C22.5,92.91,46.46,80.11,75,80.11S127.5,92.91,134.12,110.19Z" transform="translate(-3 -4.37)"/><path class="cls-3" d="M134.12,110.19C119.73,128.48,91.25,141.64,75,141.64s-44.73-13.16-59.12-31.45C22.5,92.91,46.46,80.11,75,80.11S127.5,92.91,134.12,110.19Z" transform="translate(-3 -4.37)"/><circle cx="55.78" cy="64.16" r="4.47"/><path class="cls-4" d="M75,102.35c-2.32,0-11.41-11.89-10.66-13.74s3.8-2.17,10.66-2.17,9.92.31,10.68,2.17S77.32,102.35,75,102.35Z" transform="translate(-3 -4.37)"/><path class="cls-5" d="M58.25,103c1.11,8,16.88,11.57,16.88,11.57S90.89,111,92,103" transform="translate(-3 -4.37)"/><line class="cls-6" x1="94.62" y1="90.03" x2="122.71" y2="81.79"/><line class="cls-6" x1="96.62" y1="96.67" x2="122.71" y2="92.91"/><line class="cls-6" x1="49.39" y1="90.03" x2="21.3" y2="81.79"/><line class="cls-6" x1="47.39" y1="96.67" x2="21.3" y2="92.91"/><line class="cls-6" x1="94.62" y1="103.31" x2="122.71" y2="105.07"/><line class="cls-6" x1="49.39" y1="103.31" x2="21.3" y2="105.07"/><path class="cls-7" d="M129.09,41.36c-11.24-4.81-24.6-6.57-30.32-7.13,3.6-7.38,11.93-16.55,16-19.31C120,21.59,126.14,33.7,129.09,41.36Z" transform="translate(-3 -4.37)"/><path class="cls-7" d="M20.91,41.36c3-7.66,9.13-19.77,14.36-26.44,4,2.76,12.36,11.93,16,19.31C45.51,34.79,32.14,36.55,20.91,41.36Z" transform="translate(-3 -4.37)"/><path class="cls-8" d="M101.82,68.56c0,4.71-6.61,8.53-11.32,8.53A8.53,8.53,0,0,1,82,68.56c0-4.71,3.82-7.23,8.53-7.23S101.82,63.84,101.82,68.56Z" transform="translate(-3 -4.37)"/><circle class="cls-9" cx="86.65" cy="64.19" r="4.31"/><path class="cls-8" d="M48.18,68.56c0,4.71,6.61,8.53,11.32,8.53A8.53,8.53,0,0,0,68,68.56c0-4.71-3.82-7.23-8.53-7.23S48.18,63.84,48.18,68.56Z" transform="translate(-3 -4.37)"/><circle class="cls-9" cx="57.35" cy="64.19" r="4.31"/></svg>