<svg id="Layer_1" data-name="Layer 1" xmlns="http://www.w3.org/2000/svg" viewBox="0 0 38.3 26"><defs><style>.cls-1{fill:#f9f9f9;}.cls-2{fill:#dbd9d8;}.cls-3{fill:#c6c5c5;}.cls-4{fill:#54321f;}.cls-5{fill:#d8d8d7;}</style></defs><title>iconfinder_coffee-04_3535188</title><path class="cls-1" d="M48.5,21.6H17.3a24.37,24.37,0,0,0-.1,2.7v1a5.11,5.11,0,0,0-3.8.3,4.7,4.7,0,0,0-2.3,4v.1a9.32,9.32,0,0,0,2.5,6.1c1.7,1.7,4.1,2.5,7.1,2.5h.5a17.51,17.51,0,0,0,5,4.8V45H39.5V43c5.4-3.3,9.1-10.5,9.1-18.8A11.33,11.33,0,0,0,48.5,21.6ZM15.3,34.2a6.57,6.57,0,0,1-1.9-4.5,2.61,2.61,0,0,1,1.1-2.2,3.66,3.66,0,0,1,2.9.1A25,25,0,0,0,20,36,6.93,6.93,0,0,1,15.3,34.2Z" transform="translate(-11.1 -21.6)"/><path class="cls-2" d="M19.4,21.6a19.27,19.27,0,0,0-.1,2.4c0,10.1,6.1,18.4,13.7,18.4S46.7,34.2,46.7,24a19.27,19.27,0,0,0-.1-2.4Z" transform="translate(-11.1 -21.6)"/><path class="cls-1" d="M16.5,46.3A1.32,1.32,0,0,1,17.8,45H48.1a1.32,1.32,0,0,1,1.3,1.3h0a1.32,1.32,0,0,1-1.3,1.3H17.8a1.32,1.32,0,0,1-1.3-1.3Z" transform="translate(-11.1 -21.6)"/><path class="cls-3" d="M17.8,47.6H48.1a1.32,1.32,0,0,0,1.3-1.3H16.5A1.32,1.32,0,0,0,17.8,47.6Z" transform="translate(-11.1 -21.6)"/><path class="cls-4" d="M19.4,26.4c.9,9,6.6,15.9,13.5,15.9s12.7-6.9,13.5-15.9Z" transform="translate(-11.1 -21.6)"/><polygon class="cls-5" points="15.2 21.4 28.4 21.4 15.2 23.4 15.2 21.4"/></svg>