<svg id="ART" xmlns="http://www.w3.org/2000/svg" viewBox="0 0 144.04 135.36"><defs><style>.cls-1{fill:#9ea9ac;}.cls-1,.cls-3,.cls-5{stroke:#6a7375;stroke-width:4px;}.cls-1,.cls-3,.cls-4{stroke-miterlimit:10;}.cls-2{fill:#5e6c70;}.cls-3,.cls-5{fill:#b4bfc2;}.cls-4{fill:#fceebb;stroke:#c6ba93;stroke-width:2px;}.cls-5{stroke-linecap:round;stroke-linejoin:round;}.cls-6{fill:#212121;}</style></defs><title>iconfinder_icon_animal_elefante_3316540</title><path id="_Path_" data-name=" Path " class="cls-1" d="M44.56,24.15C37.08,15.9,18,7.82,6.81,30.86,1.89,40.94,7.8,52.53,14,63c7.9,13.5,18,24,25.19,15.32C51.89,62.85,44.56,24.15,44.56,24.15Z" transform="translate(-2.98 -7.32)"/><path id="_Path_2" data-name=" Path 2" class="cls-1" d="M105.44,24.15C112.93,15.9,132,7.81,143.2,30.86c4.91,10.08-1,21.67-7.16,32.16C128.11,76.5,118,87,110.81,78.33,98.11,62.85,105.44,24.15,105.44,24.15Z" transform="translate(-2.98 -7.32)"/><path class="cls-2" d="M53.4,30.14c-8.78-10.67-40.08-11.87-37,13.58C17.9,56.16,22.49,62,30.3,69.82c11.08,11,24.17,11.94,31.31,3.23C74.29,57.58,53.4,30.14,53.4,30.14Z" transform="translate(-2.98 -7.32)"/><path class="cls-2" d="M96.6,30.14c8.78-10.67,40.08-11.87,37,13.58-1.5,12.44-6.09,18.32-13.9,26.1-11.08,11-24.17,11.94-31.31,3.23C75.71,57.58,96.6,30.14,96.6,30.14Z" transform="translate(-2.98 -7.32)"/><path class="cls-3" d="M114.24,61.62c-3.62,15.48-.66,24.42-7.36,34.17-5.43,7.91-19.77,17.76-31.88,17.76S48.56,103.7,43.11,95.79c-6.7-9.76-3.73-18.7-7.36-34.17C28.53,30.72,48.69,9.32,75,9.32S121.48,30.72,114.24,61.62Z" transform="translate(-2.98 -7.32)"/><path class="cls-4" d="M95.92,96.4c5.14-1.75,8.68,3.83,9.44,9.95S111.68,116,109.6,118c-2.44,2.37-11.62-3.83-15.6-10.08C91.18,103.5,90.72,98.17,95.92,96.4Z" transform="translate(-2.98 -7.32)"/><path class="cls-4" d="M54.08,96.4c-5.14-1.75-8.68,3.83-9.44,9.95S38.31,116,40.39,118c2.44,2.37,11.62-3.83,15.6-10.08C58.82,103.5,59.28,98.17,54.08,96.4Z" transform="translate(-2.98 -7.32)"/><path class="cls-5" d="M57.69,92.72c3.19,9.09,4.26,34.87-4.59,37-4.31,1-8-1.75-8.09-4.25s-2.06-7.22-4.5-3.37c-3-1.08-4.67,2-2.34,4.25C38,130.43,43.35,140.68,54,140.68c23.38,0,38.92-17.19,37-48.17" transform="translate(-2.98 -7.32)"/><ellipse class="cls-6" cx="53.49" cy="59.14" rx="5.44" ry="5.13"/><path class="cls-2" d="M94.5,29.15c-4.78-2.22-11.75-3.62-19.5-3.62s-14.71,1.4-19.49,3.62C59,25.5,66.39,23,75,23S91,25.5,94.5,29.15Z" transform="translate(-2.98 -7.32)"/><path class="cls-2" d="M84.77,41.72A24.07,24.07,0,0,0,75,39.9a24.23,24.23,0,0,0-9.77,1.81C67,39.89,70.68,38.63,75,38.63S83,39.89,84.77,41.72Z" transform="translate(-2.98 -7.32)"/><path class="cls-2" d="M91.13,36c-4-1.84-9.72-3-16.13-3s-12.17,1.16-16.13,3c2.87-3,9-5.1,16.13-5.1S88.26,33,91.13,36Z" transform="translate(-2.98 -7.32)"/><ellipse class="cls-6" cx="91.52" cy="59.14" rx="5.44" ry="5.13"/></svg>