<svg id="Layer_1" data-name="Layer 1" xmlns="http://www.w3.org/2000/svg" viewBox="0 0 31 41.9"><defs><style>.cls-1{fill:#d8d8d7;}.cls-2{fill:#bfbebe;}.cls-3{fill:#a0a09f;}.cls-4{fill:#a2a2a3;}.cls-5{fill:#54321f;}.cls-6{fill:#a88771;}</style></defs><title>iconfinder_coffee-06_3535186</title><polygon class="cls-1" points="31 41.9 4.1 41.9 6.9 0 27.3 0 31 41.9"/><polygon class="cls-2" points="4.1 41.9 0 39.3 5.2 4.9 5.6 0 6.9 0 4.1 41.9"/><polygon class="cls-3" points="6.9 0 6.5 5.1 27.8 5.1 27.3 0 6.9 0"/><polygon class="cls-4" points="0 39.3 2.8 38.5 4.1 41.9 0 39.3"/><polygon class="cls-5" points="6 13.5 4.9 29.6 29.9 29.6 28.5 13.5 6 13.5"/><ellipse class="cls-6" cx="33.84" cy="32.05" rx="2.5" ry="4.1" transform="translate(-14.76 54.86) rotate(-89.41)"/><path class="cls-5" d="M37.9,32.1s-6.2-1.4-8.2-.1a9.71,9.71,0,0,1,3.1.4C34.5,32.9,37.4,33.2,37.9,32.1Z" transform="translate(-16.2 -10.7)"/></svg>