<svg id="ART" xmlns="http://www.w3.org/2000/svg" viewBox="0 0 136.62 141"><defs><style>.cls-1{fill:#b57210;stroke:#9b6115;stroke-width:2px;}.cls-1,.cls-2,.cls-4{stroke-miterlimit:10;}.cls-2{fill:#e89c05;stroke:#af7308;}.cls-2,.cls-4{stroke-width:4px;}.cls-3{fill:#fff1ce;}.cls-4{fill:#795f54;stroke:#5e4a43;}.cls-5{fill:#212121;}.cls-6{fill:#443531;}.cls-7{fill:#c66700;}</style></defs><title>iconfinder_icon_animal_girafa_3316543</title><path class="cls-1" d="M64.92,16.38c.33,4.43.6,11.63-.75,16.52-2.06,7.52-10,.29-10,.29a82.59,82.59,0,0,1,2.46-17.7,6.06,6.06,0,1,1,8.54.68l-.26.21Z" transform="translate(-6.69 -4.5)"/><path class="cls-1" d="M85.08,16.38c-.33,4.43-.6,11.63.75,16.52,2.06,7.52,10,.29,10,.29a82.59,82.59,0,0,0-2.46-17.7,6.06,6.06,0,1,0-8.54.68l.26.21Z" transform="translate(-6.69 -4.5)"/><polyline id="_Path_" data-name=" Path " class="cls-2" points="51.83 141 51.83 104.59 84.98 104.59 84.98 141"/><path class="cls-2" d="M98.67,52.17c13.39-24.71,30.46-28,40.94-21.44,9.4,5.92-22.42,40.34-40.94,21.44" transform="translate(-6.69 -4.5)"/><path class="cls-2" d="M51.33,52.17c-13.39-24.71-30.46-28-40.94-21.44C1,36.65,32.81,71.07,51.33,52.17" transform="translate(-6.69 -4.5)"/><path id="_Path_2" data-name=" Path 2" class="cls-2" d="M108.07,66.3c-.87,11.7-14.48,40.86-18.89,44.45S75,114.33,75,114.33s-9.77,0-14.18-3.59S42.8,78,41.93,66.3s4.7-19.36,6.43-22.53,0-13.11,4.6-16.06,15.14,3.8,22,3.8,17.44-6.76,22-3.8,2.87,12.89,4.6,16.06S108.94,54.61,108.07,66.3Z" transform="translate(-6.69 -4.5)"/><path class="cls-3" d="M106.08,66.15c-.86,11.44-14.54,40.1-18.16,43a9.12,9.12,0,0,1-1.67,1,27.08,27.08,0,0,1-1-6.52c-1.66-29.11,4-49.38,18-52.78A30.67,30.67,0,0,1,106.08,66.15Z" transform="translate(-6.69 -4.5)"/><path class="cls-3" d="M64.73,104.22a29.58,29.58,0,0,1-.84,6.07,8.58,8.58,0,0,1-1.81-1.1c-3.62-2.94-17.3-31.6-18.16-43a30.32,30.32,0,0,1,2.61-14.76C60.69,54.65,66.4,75,64.73,104.22Z" transform="translate(-6.69 -4.5)"/><path class="cls-4" d="M92.44,114.33c0,6.4-11.79,17.11-17.44,17.11s-17.44-10.71-17.44-17.11S59.67,86.66,75,86.66,92.44,107.93,92.44,114.33Z" transform="translate(-6.69 -4.5)"/><circle class="cls-5" cx="93.07" cy="59.95" r="3.45"/><circle class="cls-5" cx="43.74" cy="59.95" r="3.45"/><circle class="cls-6" cx="63.46" cy="97.05" r="2.71"/><circle class="cls-6" cx="73.16" cy="97.05" r="2.71"/><path class="cls-7" d="M65.27,138.75a6.75,6.75,0,0,1-4.75,6.45V132.3A6.75,6.75,0,0,1,65.27,138.75Z" transform="translate(-6.69 -4.5)"/><path class="cls-7" d="M89.67,132.3v12.9a6.75,6.75,0,0,1,0-12.9Z" transform="translate(-6.69 -4.5)"/></svg>