<svg id="Layer_1" data-name="Layer 1" xmlns="http://www.w3.org/2000/svg" viewBox="0 0 51.23 42.6"><defs><style>.cls-1{fill:#49200c;}.cls-2{fill:#8e5e46;}.cls-3{fill:#54321f;}</style></defs><title>iconfinder_coffee-10_3535182</title><ellipse class="cls-1" cx="36.91" cy="43.8" rx="10.7" ry="6.5" transform="translate(-20.88 5.05) rotate(-17.65)"/><path class="cls-2" d="M47.1,40.5S30.6,42.2,26.7,47a27.4,27.4,0,0,1,8.1-1.4C39.3,45.5,46.8,43.6,47.1,40.5Z" transform="translate(-9.34 -8.2)"/><ellipse class="cls-1" cx="23.46" cy="24.52" rx="6.5" ry="10.7" transform="translate(-14.9 33.91) rotate(-77.48)"/><path class="cls-2" d="M13,22.2S28.2,29,33.9,26.8A26.68,26.68,0,0,1,26.2,24C22.2,21.8,14.8,19.7,13,22.2Z" transform="translate(-9.34 -8.2)"/><path class="cls-2" d="M41.5,10.9s-8.9,8.8.3,18.3C41.9,29.2,51.2,19.6,41.5,10.9Z" transform="translate(-9.34 -8.2)"/><path class="cls-2" d="M58.7,31.1s-8.3-9.4-18.3-.7C40.4,30.4,49.4,40.3,58.7,31.1Z" transform="translate(-9.34 -8.2)"/><path class="cls-2" d="M60.4,8.2s-12.5.9-11.6,14.1C48.8,22.4,62.2,21.2,60.4,8.2Z" transform="translate(-9.34 -8.2)"/><path class="cls-3" d="M17.2,41.7c-.2,0-.5-.2-.5-.4a.55.55,0,0,1,.4-.6c21.2-3.3,36.3-24.6,36.4-24.8a.5.5,0,1,1,.8.6c0,.2-15.3,21.8-37.1,25.2Z" transform="translate(-9.34 -8.2)"/><ellipse class="cls-1" cx="17.26" cy="43.46" rx="5.1" ry="8.4" transform="translate(-38.77 32.76) rotate(-65.28)"/><path class="cls-2" d="M24.8,47S14.3,39.3,9.6,40A22.32,22.32,0,0,1,15,43.4C17.7,45.7,23.1,48.6,24.8,47Z" transform="translate(-9.34 -8.2)"/><path class="cls-3" d="M54,31.7h0l-12.2-2c-.2,0-.4-.3-.4-.5l.1-13a.47.47,0,0,1,.5-.5h0a.47.47,0,0,1,.5.5l-.1,12.6,11.7,2a.44.44,0,0,1,.4.6C54.5,31.5,54.2,31.7,54,31.7Z" transform="translate(-9.34 -8.2)"/></svg>