<svg id="ART" xmlns="http://www.w3.org/2000/svg" viewBox="0 0 135.7 137.31"><defs><style>.cls-1{fill:#fceebb;stroke:#c4b890;}.cls-1,.cls-2,.cls-3,.cls-4,.cls-6{stroke-miterlimit:10;}.cls-1,.cls-6{stroke-width:2px;}.cls-2{fill:#7d7d81;stroke:#555556;stroke-width:3px;}.cls-3{fill:#dbdbdb;stroke:#8c8c8c;}.cls-3,.cls-4{stroke-width:4px;}.cls-4,.cls-6{fill:#e2bda8;stroke:#aa8e80;}.cls-5{fill:#212121;}</style></defs><title>iconfinder_icon_animal_vaca_3316553</title><path class="cls-1" d="M47.68,45.28c-8-11-8.76-29.65-.1-37.83a.47.47,0,0,1,.65.06.5.5,0,0,1,.1.33c-.64,10.41,8,19.66,14.08,24.8a5.53,5.53,0,0,1,.66,7.79,5.69,5.69,0,0,1-.91.86L55.4,46.36a5.52,5.52,0,0,1-7.72-1.08Z" transform="translate(-7.15 -6.35)"/><path class="cls-1" d="M102.32,45.28c8.05-11,8.76-29.65.1-37.83a.47.47,0,0,0-.65.06.5.5,0,0,0-.1.33c.64,10.41-8,19.66-14.08,24.8a5.53,5.53,0,0,0-.66,7.79,5.69,5.69,0,0,0,.91.86l6.76,5.07a5.52,5.52,0,0,0,7.72-1.08Z" transform="translate(-7.15 -6.35)"/><path class="cls-2" d="M102.39,50.21a6.42,6.42,0,0,0,2.5-2c13.33-16.51,35.17-11.69,36.4-7.66s-16,21-32.45,16.59C96.23,53.81,99.94,51.24,102.39,50.21Z" transform="translate(-7.15 -6.35)"/><path class="cls-2" d="M47.61,50.21a6.42,6.42,0,0,1-2.5-2C31.79,31.75,9.94,36.57,8.71,40.6s16,21,32.45,16.59C53.77,53.81,50.06,51.24,47.61,50.21Z" transform="translate(-7.15 -6.35)"/><path class="cls-3" d="M116.48,68c0,28.66-18.57,62.09-41.48,62.09S33.52,96.63,33.52,68,52.09,26.28,75,26.28,116.48,39.31,116.48,68Z" transform="translate(-7.15 -6.35)"/><ellipse class="cls-4" cx="67.85" cy="109.46" rx="30.3" ry="25.85"/><circle class="cls-5" cx="49.15" cy="53" r="5.01"/><circle class="cls-5" cx="86.55" cy="53" r="5.01"/><circle class="cls-6" cx="55.67" cy="111.02" r="5.52"/><circle class="cls-6" cx="80.03" cy="111.02" r="5.52"/></svg>