<svg id="Layer_1" data-name="Layer 1" xmlns="http://www.w3.org/2000/svg" viewBox="0 0 19.31 55.3"><defs><style>.cls-1{fill:#c5c5c1;}.cls-2{fill:#54321f;}.cls-3{fill:#fff;}.cls-4{fill:#b7a59c;}.cls-5{fill:#442718;}</style></defs><title>iconfinder_coffee-08_3535184</title><polygon class="cls-1" points="15.3 55.3 4 55.3 0 14.2 19.3 14.2 15.3 55.3"/><polygon class="cls-2" points="4.9 52.9 14.4 52.9 16.1 32.5 3.2 32.5 4.9 52.9"/><polygon class="cls-3" points="17.6 14.2 1.7 14.2 2.4 23.5 16.9 23.5 17.6 14.2"/><polygon class="cls-4" points="16.9 23.5 16.9 23.5 2.4 23.5 2.4 23.5 3.2 32.5 3.2 32.5 16.1 32.5 16.1 32.5 16.9 23.5"/><path class="cls-5" d="M33.5,9.5l7.4-4.2a.44.44,0,0,0,.2-.7.44.44,0,0,0-.7-.2L32.7,8.7a.55.55,0,0,0-.3.5l-.1,4.7c.3-.1.7-.2,1.1-.3Z" transform="translate(-22.9 -4.3)"/><path class="cls-3" d="M40.2,16.1a3.43,3.43,0,0,0-2.5-.9c-1-1.5-3.4-1.5-3.4-1.5a2.77,2.77,0,0,0-.9-.1,2,2,0,0,0-1.1.3,5.75,5.75,0,0,0-1.2.7,2.4,2.4,0,0,0-3.5.6c-3.4-1-4.7,3.3-4.7,3.3H42.2C42.4,16.5,40.2,16.1,40.2,16.1Z" transform="translate(-22.9 -4.3)"/></svg>