<svg id="Layer_1" data-name="Layer 1" xmlns="http://www.w3.org/2000/svg" viewBox="0 0 35.5 28.8"><defs><style>.cls-1{fill:#7c5039;}.cls-2{fill:#f9f9f9;}.cls-3{fill:#5b3625;}.cls-4{fill:#c6c5c5;}.cls-5{fill:#fff;}</style></defs><title>iconfinder_coffee-03_3535179</title><path class="cls-1" d="M48,22.3H19a20.9,20.9,0,0,0-.1,2.5v.9a4.83,4.83,0,0,0-3.5.3c-1.2.6-1.9,1.9-2.1,3.7v.1a8.66,8.66,0,0,0,2.4,5.7,9.29,9.29,0,0,0,6.6,2.3h.5a14.72,14.72,0,0,0,4.6,4.4V44H39.8V42.2c5-3.1,8.5-9.7,8.5-17.4A10.68,10.68,0,0,1,48,22.3ZM17,34.1a6.63,6.63,0,0,1-1.8-4.2,2.62,2.62,0,0,1,1-2.1,3.59,3.59,0,0,1,2.7.1,23.74,23.74,0,0,0,2.4,7.8A6.15,6.15,0,0,1,17,34.1Z" transform="translate(-13.3 -17.7)"/><path class="cls-2" d="M18.1,45.3a1.16,1.16,0,0,1,1.2-1.2H47.5a1.16,1.16,0,0,1,1.2,1.2h0a1.16,1.16,0,0,1-1.2,1.2H19.4a1.24,1.24,0,0,1-1.3-1.2Z" transform="translate(-13.3 -17.7)"/><polygon class="cls-3" points="14 24.6 26.3 24.6 14 26.4 14 24.6"/><path class="cls-4" d="M19.4,46.5H47.6a1.16,1.16,0,0,0,1.2-1.2H18.1A1.24,1.24,0,0,0,19.4,46.5Z" transform="translate(-13.3 -17.7)"/><path class="cls-5" d="M18.9,22.3s.5-2.3,5-2a11,11,0,0,0,6.8.1c3.3-1.2,6.5-1.8,8.9-.5,0,0,2.4.7,3.9-.2a2.94,2.94,0,0,0,1.6-2,4.14,4.14,0,0,0,1,2.7c1,.9,1.5.5,1.8,2h-29Z" transform="translate(-13.3 -17.7)"/></svg>