<svg id="Layer_1" data-name="Layer 1" xmlns="http://www.w3.org/2000/svg" viewBox="0 0 18.4 48"><defs><style>.cls-1{fill:#442718;}.cls-2{fill:#54321f;}.cls-3{fill:#a88771;}.cls-4{fill:#d8d8d7;}.cls-5{fill:#bebeb9;}.cls-6{fill:#eae9e7;}</style></defs><title>iconfinder_coffee-01_3535178</title><polygon class="cls-1" points="15.5 48 2.9 48 2.3 43.1 16.1 43.1 15.5 48"/><polygon class="cls-2" points="16.3 44.3 2.1 44.3 0 16.8 18.4 16.8 16.3 44.3"/><rect class="cls-3" y="14.9" width="18.4" height="1.9"/><path class="cls-4" d="M41.2,21.38a9.32,9.32,0,0,0-18.4,0Z" transform="translate(-22.8 -6.47)"/><polygon class="cls-3" points="17.2 36.4 18.3 22.6 0.1 22.6 1 36.4 17.2 36.4"/><path class="cls-5" d="M36.4,21.38h3.4a4.38,4.38,0,0,0-.4-1.61H36.2A4.17,4.17,0,0,1,36.4,21.38Z" transform="translate(-22.8 -6.47)"/><path class="cls-5" d="M33.3,14.18a11.4,11.4,0,0,1,2.6,4.2h3A10.32,10.32,0,0,0,33.3,14.18Z" transform="translate(-22.8 -6.47)"/><path class="cls-5" d="M31,14.18a10,10,0,0,0-5.6,4.2h3A12.61,12.61,0,0,1,31,14.18Z" transform="translate(-22.8 -6.47)"/><path class="cls-1" d="M41,6.78a.53.53,0,0,0-.8-.2l-8,4.5a.55.55,0,0,0-.3.5l-.2,5.7a3.59,3.59,0,0,1,1.1-.2l.1-5.1,7.7-4.3C41,7.38,41.1,7.07,41,6.78Z" transform="translate(-22.8 -6.47)"/><path class="cls-6" d="M31.8,17.17a11,11,0,0,0-1.2.6,2.18,2.18,0,0,0-3.1.5c-3-.89-4.2,3-4.2,3H40.5c.2-1.79-1.8-2.2-1.8-2.2a3,3,0,0,0-2.2-.8c-.9-1.29-3-1.29-3-1.29-.2,0-.3-.1-.5-.1C32.5,17,32.2,17.08,31.8,17.17Z" transform="translate(-22.8 -6.47)"/></svg>