<svg id="Layer_1" data-name="Layer 1" xmlns="http://www.w3.org/2000/svg" viewBox="0 0 27.7 45.5"><defs><style>.cls-1{fill:#989897;}.cls-2{fill:#fff;}.cls-3{fill:#442718;}.cls-4{opacity:0.2;}.cls-5{fill:#54321f;}.cls-6{fill:#e8e7e7;}.cls-7{fill:#321b10;}</style></defs><title>iconfinder_coffee-02_3570291</title><path class="cls-1" d="M22.8,22.6H20.1l2.7,5.9V22.6Z" transform="translate(-20.1 -6.7)"/><path class="cls-2" d="M38.3,21.5H24a1.13,1.13,0,0,0-1.2,1.1h0V51A1.22,1.22,0,0,0,24,52.2H38.2A1.16,1.16,0,0,0,39.4,51V22.7A1,1,0,0,0,38.3,21.5Z" transform="translate(-20.1 -6.7)"/><path class="cls-3" d="M43.5,23.2h-4v1.6h4a2.69,2.69,0,0,1,2.7,2.7V43.3A2.69,2.69,0,0,1,43.5,46h-4v1.6h4a4.27,4.27,0,0,0,4.3-4.3V27.6A4.42,4.42,0,0,0,43.5,23.2Z" transform="translate(-20.1 -6.7)"/><rect class="cls-3" x="2.7" y="22.2" width="16.7" height="2.1"/><path class="cls-3" d="M22.8,48.3V51A1.22,1.22,0,0,0,24,52.2H38.2A1.16,1.16,0,0,0,39.4,51V48.3Z" transform="translate(-20.1 -6.7)"/><rect class="cls-3" x="16.2" y="37.9" width="3" height="0.9"/><rect class="cls-3" x="16.2" y="31.7" width="3" height="0.9"/><rect class="cls-3" x="17.7" y="36.3" width="1.5" height="0.9"/><rect class="cls-3" x="17.7" y="34.8" width="1.5" height="0.9"/><rect class="cls-3" x="17.7" y="33.2" width="1.5" height="0.9"/><rect class="cls-3" x="16.2" y="25.6" width="3" height="0.9"/><rect class="cls-3" x="17.7" y="30.2" width="1.5" height="0.9"/><rect class="cls-3" x="17.7" y="28.6" width="1.5" height="0.9"/><rect class="cls-3" x="17.7" y="27.1" width="1.5" height="0.9"/><g class="cls-4"><path class="cls-5" d="M25.9,44.5a1,1,0,0,1-.8,1h0c-.5,0-.8-.4-.8-1V24.2a1,1,0,0,1,.8-1h0c.5,0,.8.4.8,1Z" transform="translate(-20.1 -6.7)"/></g><path class="cls-3" d="M29.5,43.5l-1.9,4h7l-1.9-4H31.5V10.8a2,2,0,1,0-.8,0V43.5Z" transform="translate(-20.1 -6.7)"/><path class="cls-5" d="M39.7,21.5a8.49,8.49,0,0,0-8.6-6.7,8.57,8.57,0,0,0-8.6,6.7Z" transform="translate(-20.1 -6.7)"/><g class="cls-4"><path class="cls-6" d="M25.9,16.5l4.8,5h9a8.49,8.49,0,0,0-8.6-6.7A10.36,10.36,0,0,0,25.9,16.5Z" transform="translate(-20.1 -6.7)"/></g><polygon class="cls-7" points="11.5 40.8 14.6 40.8 12.7 36.8 11.5 36.8 11.5 40.8"/></svg>