<svg id="ART" xmlns="http://www.w3.org/2000/svg" viewBox="0 0 122.26 137.34"><defs><style>.cls-1{fill:#b26f2d;}.cls-1,.cls-3{stroke:#754015;stroke-width:4px;}.cls-1,.cls-10,.cls-3,.cls-4,.cls-6,.cls-9{stroke-miterlimit:10;}.cls-2{fill:#d8985d;}.cls-3{fill:#dd852f;}.cls-4,.cls-5{fill:#f2c497;}.cls-4{stroke:#c19772;}.cls-4,.cls-6,.cls-9{stroke-width:2px;}.cls-6{fill:#efdfc4;}.cls-6,.cls-9{stroke:#9b8b7b;}.cls-7{fill:#212121;}.cls-8{fill:#4c331c;}.cls-10,.cls-9{fill:none;}.cls-9{stroke-linecap:round;}.cls-10{stroke:#473e38;}</style></defs><title>iconfinder_icon_animal_leao_3316544</title><ellipse class="cls-1" cx="35.2" cy="36.34" rx="19.27" ry="24.09" transform="translate(-19.47 0.2) rotate(-9.84)"/><path class="cls-2" d="M39.67,51.53a8.75,8.75,0,0,1-1.42.38C32.07,53,25.59,46.81,24.1,38.39c-1.37-7.78,1.74-15.16,7.25-17.17a8.75,8.75,0,0,1,1.42-.38,10.12,10.12,0,0,1,8.42,2.77,18.5,18.5,0,0,1,5.73,10.75C48.29,42.15,45.17,49.53,39.67,51.53Z" transform="translate(-13.78 -6.35)"/><ellipse class="cls-1" cx="114.5" cy="36.38" rx="24.22" ry="19.37" transform="translate(45.02 136.47) rotate(-80)"/><path class="cls-2" d="M113.22,52a7.93,7.93,0,0,1-1.46-.13c-6.18-1.09-10.15-9.13-8.67-17.55,1.37-7.78,6.82-13.65,12.68-13.65a7.93,7.93,0,0,1,1.46.13,10.12,10.12,0,0,1,7,5.48,18.51,18.51,0,0,1,1.71,12.06C124.53,46.17,119.07,52,113.22,52Z" transform="translate(-13.78 -6.35)"/><path class="cls-3" d="M27.26,100.24c-15-24.37,1.22-74,24-79C55.67,8.63,71.37,8.4,71.37,8.4,68.33,14.08,69,18.48,69,18.48c6.8-8.2,18.28-7,18.28-7-.7,7.58,16.64,8.67,27.07,20.74s19.1,28.48,12.19,59.53c-3-6-6.21-6.09-6.21-6.09-.47,23-21.91,51.18-38.44,55.4.79-9.92-1.76-13.24-3.75-14.41.94,5.86-2.71,11.6-2.71,11.6C45,131,35.43,116.57,33.09,87.16,27.77,95.08,27.26,100.24,27.26,100.24Z" transform="translate(-13.78 -6.35)"/><ellipse class="cls-4" cx="61.68" cy="99.4" rx="16.81" ry="11"/><path class="cls-5" d="M119.82,64c0,7.65-1.95,10.4-8.32,17S96,94.88,77.3,94.88H75.64C57,94.88,47.81,87.61,41.44,81s-8.32-9.34-8.32-17c0-14.77,15.12-33.53,39.52-33.53.28,0,3.55,4.09,3.83,4.1S80,30.5,80.3,30.5C104.7,30.5,119.82,49.26,119.82,64Z" transform="translate(-13.78 -6.35)"/><path class="cls-6" d="M102.47,91.66c0,11-8.81,23.17-26.84,12.56-18,10.61-26.84-1.53-26.84-12.56s8.81-20,26.84-20S102.47,80.62,102.47,91.66Z" transform="translate(-13.78 -6.35)"/><circle class="cls-7" cx="45.62" cy="53.46" r="3.34"/><circle class="cls-7" cx="79.93" cy="53.45" r="3.34"/><path class="cls-8" d="M84.7,77.64c0,3.73-5.33,9.42-9.07,9.42s-9.07-5.68-9.07-9.42,5.33-4.1,9.07-4.1S84.7,73.91,84.7,77.64Z" transform="translate(-13.78 -6.35)"/><line class="cls-9" x1="61.86" y1="97.87" x2="61.86" y2="81.42"/><line class="cls-10" x1="69.55" y1="84.55" x2="81.36" y2="78.74"/><line class="cls-10" x1="70.96" y1="87.32" x2="83.36" y2="87.32"/><line class="cls-10" x1="69.55" y1="90.08" x2="81.36" y2="95.89"/><line class="cls-10" x1="52.81" y1="84.55" x2="42" y2="78.74"/><line class="cls-10" x1="51.41" y1="87.32" x2="40" y2="87.32"/><line class="cls-10" x1="52.81" y1="90.08" x2="42" y2="95.89"/></svg>