<svg id="Layer_1" data-name="Layer 1" xmlns="http://www.w3.org/2000/svg" viewBox="0 0 33.2 43.8"><defs><style>.cls-1{fill:#54321f;}.cls-2{fill:#fff;}.cls-3{fill:#fcce6b;}.cls-4{fill:#49200c;}</style></defs><title>iconfinder_coffee-11_3535181</title><path class="cls-1" d="M32.2,27.5a.47.47,0,0,1-.5-.5V13.7a.47.47,0,0,1,.5-.5H44.4a.5.5,0,0,1,0,1H32.7V27A.64.64,0,0,1,32.2,27.5Z" transform="translate(-15.4 -10.1)"/><polygon class="cls-1" points="28.5 2.3 26.8 2.3 26.3 0 28.9 0 28.5 2.3"/><circle class="cls-1" cx="16.8" cy="3.6" r="1.4"/><path class="cls-1" d="M45.2,20.8V22h-1a12.18,12.18,0,0,1-7.3,9.5,12.87,12.87,0,0,1-4.8,1A12.27,12.27,0,0,1,20,22.1h-.9V20.9H45.2Z" transform="translate(-15.4 -10.1)"/><polygon class="cls-1" points="33.2 22.3 33.2 21.1 21.9 21.1 20.4 21.1 0 21.1 0 22.3 1.9 22.3 1.9 42.6 0 42.6 0 43.8 33.2 43.8 33.2 42.6 31.7 42.6 31.7 22.3 33.2 22.3"/><rect class="cls-2" x="7.7" y="28.3" width="19.3" height="8.5"/><polygon class="cls-3" points="33.2 42.6 33.2 42.7 31.7 42.7 31.7 42.6 33.2 42.6"/><circle class="cls-4" cx="18" cy="32.6" r="1.2"/></svg>