<svg id="Layer_1" data-name="Layer 1" xmlns="http://www.w3.org/2000/svg" viewBox="0 0 27.8 41.2"><defs><style>.cls-1{fill:#54321f;}.cls-2{fill:#e8e5e6;}.cls-3{fill:#49200c;}.cls-4{fill:#8e5e46;}</style></defs><title>iconfinder_coffee-12_3535180</title><path class="cls-1" d="M42.6,15.1H21.4a2,2,0,0,1-2-2v-.6a2,2,0,0,1,2-2H42.7a2,2,0,0,1,2,2v.6A2.16,2.16,0,0,1,42.6,15.1Z" transform="translate(-18.1 -10.5)"/><path class="cls-2" d="M45.9,26.1V48.6a3.12,3.12,0,0,1-3.1,3.1H21.2a3.12,3.12,0,0,1-3.1-3.1V26.1A8.45,8.45,0,0,1,20,20.7,8.58,8.58,0,0,1,23.8,18V15.2H40.1V18A8.63,8.63,0,0,1,45.9,26.1Z" transform="translate(-18.1 -10.5)"/><ellipse class="cls-3" cx="32.9" cy="31.62" rx="4.8" ry="8" transform="translate(-23.2 46.38) rotate(-77.48)"/><path class="cls-4" d="M25.1,29.9S36.4,35,40.6,33.3a20.76,20.76,0,0,1-5.7-2.1C32,29.6,26.5,28.1,25.1,29.9Z" transform="translate(-18.1 -10.5)"/><ellipse class="cls-3" cx="26.51" cy="41.68" rx="5.8" ry="3.5" transform="matrix(0.85, -0.52, 0.52, 0.85, -35.88, 9.32)"/><path class="cls-4" d="M21.5,44.7s8.4-3,9.8-6a17.58,17.58,0,0,1-4,1.8C25,41.1,21.3,43,21.5,44.7Z" transform="translate(-18.1 -10.5)"/><ellipse class="cls-3" cx="38.4" cy="43.42" rx="3.8" ry="6.3" transform="translate(-37.63 30.79) rotate(-46.41)"/><path class="cls-4" d="M33.9,39.1s5.5,8,9.1,8.6A14.45,14.45,0,0,1,40,44C38.6,41.7,35.5,38.4,33.9,39.1Z" transform="translate(-18.1 -10.5)"/></svg>