<svg id="ART" xmlns="http://www.w3.org/2000/svg" viewBox="0 0 128.94 140.9"><defs><style>.cls-1,.cls-2,.cls-3{fill:#a7b6c4;stroke:#596066;}.cls-1{stroke-linecap:round;stroke-linejoin:round;}.cls-1,.cls-2,.cls-5{stroke-width:2px;}.cls-2,.cls-3,.cls-4,.cls-5{stroke-miterlimit:10;}.cls-3,.cls-4{stroke-width:3px;}.cls-4{fill:#6d839b;}.cls-4,.cls-5{stroke:#414f5b;}.cls-5{fill:none;}.cls-6{fill:#384856;}</style></defs><title>iconfinder_icon_animal_peixe_3316548</title><path class="cls-1" d="M44.63,111.82c5.93-2.24,11.18,9.13,11.82,17s-29.42,5.75-36.08-.08C35,129.39,34.26,115.73,44.63,111.82Z" transform="translate(-10.52 -4.3)"/><path class="cls-1" d="M114.2,111.82c-5.93-2.24-11.18,9.13-11.82,17s29.42,5.75,36.08-.08C123.8,129.39,124.57,115.73,114.2,111.82Z" transform="translate(-10.52 -4.3)"/><path class="cls-2" d="M74.7,41.49C75.82,29.15,79.8,5.3,94,5.3,82.69,9.72,82.54,37.62,87.58,41.49S74.7,41.49,74.7,41.49Z" transform="translate(-10.52 -4.3)"/><path class="cls-3" d="M53.84,75.29l1.62,19c-15.58,5-37.54,15.82-43,28.78-2.69-16.83,7.33-39.73,22.11-51C24.17,56.77,22,31.86,30,16.78c1,14,18.34,31.33,31.51,41Z" transform="translate(-10.52 -4.3)"/><path id="_Path_" data-name=" Path " class="cls-4" d="M113.77,100.19c0,29.63-15.26,43.51-34.08,43.51s-34.08-13.88-34.08-43.51,15.26-63.8,34.08-63.8S113.77,70.55,113.77,100.19Z" transform="translate(-10.52 -4.3)"/><path class="cls-5" d="M79.69,95.07c-4.38,0-8.16-4.07-9.91-10.07a16.7,16.7,0,0,0,19.81,0C87.84,91,84.07,95.07,79.69,95.07Z" transform="translate(-10.52 -4.3)"/><path d="M106.31,87c-.92.36-4.08,1.2-6-3.38C98.8,80,100,77,101.88,75.49s4.47.61,5.68,3.54C109.09,82.57,108.51,86.15,106.31,87Z" transform="translate(-10.52 -4.3)"/><path d="M53.09,87c.92.36,4.08,1.2,6-3.38,1.51-3.65.27-6.66-1.57-8.13s-4.47.61-5.68,3.54C50.35,82.57,50.92,86.15,53.09,87Z" transform="translate(-10.52 -4.3)"/><path class="cls-6" d="M108.09,123.33c-5.32,12-15.26,18.86-28.45,18.86-12.51,0-22.09-6.18-27.64-17,7.09-6.11,17.53-10,29.17-10C91.66,115.15,101.13,118.27,108.09,123.33Z" transform="translate(-10.52 -4.3)"/></svg>