<svg id="ART" xmlns="http://www.w3.org/2000/svg" viewBox="0 0 89.38 142.94"><defs><style>.cls-1,.cls-2{fill:#91592c;}.cls-1{stroke:#6b4022;}.cls-1,.cls-3,.cls-5,.cls-7{stroke-miterlimit:10;}.cls-1,.cls-5{stroke-width:4px;}.cls-3{fill:#281614;stroke:#281614;}.cls-3,.cls-4{stroke-width:2px;}.cls-4{fill:#6d3722;stroke:#442015;stroke-miterlimit:20;}.cls-5{fill:#5e3730;stroke:#351f1c;}.cls-6{fill:#351f1c;}.cls-7{fill:#fff;stroke:#fff;}.cls-8{fill:#212121;}</style></defs><title>iconfinder_icon_animal_cavalo_3316538</title><path id="_Path_" data-name=" Path " class="cls-1" d="M95.88,56.62c-5.17-19.28.43-46.89,16.28-50.8C127,30,108.8,45.68,95.88,56.62Z" transform="translate(-30.31 -3.53)"/><path class="cls-2" d="M104.94,45.68c3.38-10.35,6.65-23.42,6.06-37.4l.24-.09C120.42,24.35,113.93,36.32,104.94,45.68Z" transform="translate(-30.31 -3.53)"/><path id="_Path_2" data-name=" Path 2" class="cls-1" d="M54.12,56.62c5.17-19.28-.43-46.89-16.28-50.8C23.05,30,41.2,45.68,54.12,56.62Z" transform="translate(-30.31 -3.53)"/><path class="cls-2" d="M45.06,45.68c-9-9.36-15.48-21.33-6.3-37.49l.24.09C38.41,22.26,41.68,35.33,45.06,45.68Z" transform="translate(-30.31 -3.53)"/><path id="_Path_3" data-name=" Path 3" class="cls-1" d="M110.09,65.15c0,11.09-7.61,29-8.3,42.25C100.91,124.62,84.66,138,75,138s-25.91-13.38-26.79-30.6c-.69-13.26-8.3-31.16-8.3-42.25C39.91,46,55.62,24.72,75,24.72S110.09,46,110.09,65.15Z" transform="translate(-30.31 -3.53)"/><path class="cls-3" d="M94.94,127.3c0,9.92-9.58,18.17-19.94,18.17s-19.94-8.26-19.94-18.17S64.64,103.8,75,103.8,94.94,117.38,94.94,127.3Z" transform="translate(-30.31 -3.53)"/><path class="cls-4" d="M75,21.22a28.11,28.11,0,0,1,9.41,1.47c8.73,3.79,6.86,13.85,4.91,19.41C79.24,37,77.06,38.63,83,50.76,59.5,47.76,53.66,27.83,64.86,23,67.42,21.93,69.75,21.22,75,21.22Z" transform="translate(-30.31 -3.53)"/><path class="cls-5" d="M97.26,115.9c0,10.77-10.7,22.82-22.26,22.82s-22.26-12-22.26-22.82,10.7-21,22.26-21S97.26,105.13,97.26,115.9Z" transform="translate(-30.31 -3.53)"/><ellipse class="cls-6" cx="65.68" cy="110.29" rx="4.03" ry="5.8" transform="translate(-56.62 17.23) rotate(-15)"/><ellipse class="cls-6" cx="84.33" cy="110.3" rx="5.8" ry="4.03" transform="translate(-74.35 159.68) rotate(-75)"/><path class="cls-7" d="M106.11,68.48c1.25,4.65-.44,9.9-5.23,11.18S91.39,81,90.14,76.32s1.94-8.67,6.19-10.61S104.86,63.82,106.11,68.48Z" transform="translate(-30.31 -3.53)"/><path class="cls-8" d="M98.3,77.62c-1.13.3-4.89,1-5.74-2.12-.68-2.53,1.54-4.73,4-5.86a3.73,3.73,0,0,1,5.07,1.5,4.09,4.09,0,0,1,.31.75A4.82,4.82,0,0,1,98.3,77.62Z" transform="translate(-30.31 -3.53)"/><path class="cls-7" d="M43.72,68.48c-1.25,4.65.44,9.9,5.23,11.18S58.44,81,59.69,76.32s-1.94-8.67-6.19-10.61S45,63.82,43.72,68.48Z" transform="translate(-30.31 -3.53)"/><path class="cls-8" d="M51.53,77.62c1.13.3,4.89,1,5.74-2.12.68-2.53-1.54-4.73-4-5.86a3.73,3.73,0,0,0-5.07,1.5,4.09,4.09,0,0,0-.31.75A4.82,4.82,0,0,0,51.53,77.62Z" transform="translate(-30.31 -3.53)"/></svg>