<svg id="Layer_1" data-name="Layer 1" xmlns="http://www.w3.org/2000/svg" viewBox="0 0 28.4 44.1"><defs><style>.cls-1{fill:#54321f;}.cls-2{opacity:0.25;}.cls-3{fill:#a88771;}.cls-4{opacity:0.7;}.cls-5{fill:#7d7d7c;}.cls-6{fill:#341a0f;}.cls-7{fill:#2f1910;}.cls-8{fill:#442718;}.cls-9{fill:#e5e3e3;}.cls-10{fill:#542c1e;}.cls-11{fill:#b9b9ba;}.cls-12{fill:#321b10;}</style></defs><title>iconfinder_coffee-09_3535183</title><rect class="cls-1" x="2.6" y="1.9" width="23.4" height="41.7"/><path class="cls-1" d="M46.2,52.4V48c0-.8-.4-1.4-.9-1.4H18.7c-.5,0-.9.6-.9,1.4v4.4Z" transform="translate(-17.8 -8.3)"/><path class="cls-3" d="M21.2,17.5a.22.22,0,0,1,.2-.2h0a.22.22,0,0,1,.2.2v3.9a.22.22,0,0,1-.2.2h0a.22.22,0,0,1-.2-.2Z" transform="translate(-17.8 -8.3)"/><path class="cls-3" d="M21.2,22.3c0-.1.1-.1.2-.1h0c.1,0,.2,0,.2.1v1.9c0,.1-.1.1-.2.1h0c-.1,0-.2,0-.2-.1Z" transform="translate(-17.8 -8.3)"/><g class="cls-4"><path class="cls-5" d="M41.9,38H40.7V34.4c.1-3-1-3.9-1.5-3.9H35.3V29.3h3.9a2.15,2.15,0,0,1,1.5.7c.9.8,1.3,2.3,1.2,4.4Z" transform="translate(-17.8 -8.3)"/></g><path class="cls-6" d="M32.7,26.2a.32.32,0,0,1-.3.3h-.9a.32.32,0,0,1-.3-.3v-1a.32.32,0,0,1,.3-.3h.9a.32.32,0,0,1,.3.3Z" transform="translate(-17.8 -8.3)"/><path class="cls-7" d="M32.1,40.3a42.9,42.9,0,0,1-7.5-.4c0,.3-.1.7-.1,1,0,4,3.2,4.5,7.4,4.5s7.8-.5,7.8-4.5a3.75,3.75,0,0,0-.1-1C39.2,40.2,36,40.3,32.1,40.3Z" transform="translate(-17.8 -8.3)"/><path class="cls-8" d="M39.6,40h0c.1-.1,0-.1,0-.1-.5-.3-3.7-.5-7.5-.5s-7,.2-7.5.5a.1.1,0,0,0-.1.1l.1.1c.4.3,3.6.5,7.5.5S39.1,40.3,39.6,40Z" transform="translate(-17.8 -8.3)"/><path class="cls-9" d="M36.6,30.8c-.5-.5-.4-.8-.4-.8a3.32,3.32,0,0,0,.3-3.3l-.1.1H28c-.1,0-.1-.1-.2-.1a3.73,3.73,0,0,0-1.4.4,6.54,6.54,0,0,1,1.3,2.2h0a1.28,1.28,0,0,1-.4,1.4,20.59,20.59,0,0,0-3.7,10.7c0,4.5,3.5,5.1,8.2,5.1s8.7-.6,8.7-5.1C40.6,38.5,39,33.9,36.6,30.8Z" transform="translate(-17.8 -8.3)"/><path class="cls-7" d="M28,26.7h8.3c.1,0,.1,0,.1-.1v-.1a.22.22,0,0,0-.2-.2H28a.22.22,0,0,0-.2.2h0C27.9,26.7,27.9,26.7,28,26.7Z" transform="translate(-17.8 -8.3)"/><rect class="cls-10" x="9.6" y="20.9" width="9.4" height="1.3"/><rect class="cls-8" x="14.4" y="34.6" width="5" height="0.7"/><rect class="cls-8" x="14.4" y="30.3" width="5" height="0.7"/><rect class="cls-8" x="16.9" y="33.5" width="2.5" height="0.7"/><rect class="cls-8" x="16.9" y="32.5" width="2.5" height="0.7"/><rect class="cls-8" x="16.9" y="31.4" width="2.5" height="0.7"/><rect class="cls-8" x="14.4" y="26" width="5" height="0.7"/><rect class="cls-8" x="16.9" y="29.2" width="2.5" height="0.7"/><rect class="cls-8" x="16.9" y="28.2" width="2.5" height="0.7"/><rect class="cls-8" x="16.9" y="27.1" width="2.5" height="0.7"/><path class="cls-11" d="M39.7,10.2h-15c-.1.1-.2.3-.4.4H40C39.9,10.5,39.8,10.3,39.7,10.2Z" transform="translate(-17.8 -8.3)"/><ellipse class="cls-3" cx="14.9" cy="41" rx="2" ry="1.1"/><rect class="cls-7" x="7.9" y="37.1" width="12.6" height="1.3"/><path class="cls-1" d="M35.7,10.2h4a6.17,6.17,0,0,0-4-1.7,30.48,30.48,0,0,0-3.2-.2v1.9Z" transform="translate(-17.8 -8.3)"/><path class="cls-1" d="M40.6,13.1a4.27,4.27,0,0,0-.6-2.4H32.4V26h3.4a.75.75,0,0,0,.5-.1.62.62,0,0,0,.4-.6V23.2h0A18.91,18.91,0,0,0,40.6,13.1Z" transform="translate(-17.8 -8.3)"/><path class="cls-12" d="M28.6,8.5a6.17,6.17,0,0,0-4,1.7h7.8V8.3h-.1C31.1,8.3,29.8,8.4,28.6,8.5Z" transform="translate(-17.8 -8.3)"/><path class="cls-12" d="M28.6,10.7H24.3a4.27,4.27,0,0,0-.6,2.4,17.87,17.87,0,0,0,3.7,9.7.6.6,0,0,1,.1.4v2.1c0,.3.2.5.5.7a.75.75,0,0,0,.5.1h4V10.7Z" transform="translate(-17.8 -8.3)"/></svg>