<svg id="Layer_1" data-name="Layer 1" xmlns="http://www.w3.org/2000/svg" viewBox="0 0 34.6 43.1"><defs><style>.cls-1{fill:#141b18;}.cls-2{fill:#e8e5e6;}.cls-3{fill:#cccbc9;}.cls-4{fill:#bfbebe;}.cls-5{fill:#c6c5c5;}.cls-6{fill:#f9faf5;}.cls-7{opacity:0.25;}.cls-8{fill:#a4a4a4;}</style></defs><title>iconfinder_coffee-07_3535189</title><path class="cls-1" d="M32.3,15.7h.5l.8-2.5a2,2,0,0,0-1.9-2.7,1.92,1.92,0,0,0-1.9,2.7l.8,2.5h1.7Z" transform="translate(-15.6 -10.5)"/><polygon class="cls-2" points="25.6 5.2 17.2 5.2 16.7 5.2 15.4 5.2 14.9 5.2 6.2 5.2 5 8.7 26.8 8.7 25.6 5.2"/><polygon class="cls-3" points="5.1 8.7 0 8.7 6.2 15.8 5.1 8.7"/><path class="cls-1" d="M47.5,19.6H42.3L42,21.7h4.2l1.9,4.5a47.36,47.36,0,0,1-3.2,7.1H42.5v2.1h3.6l.3-.5a56.69,56.69,0,0,0,3.7-8.3l.1-.4Z" transform="translate(-15.6 -10.5)"/><polygon class="cls-2" points="26.8 8.7 5 8.7 8.2 29.5 23.6 29.5 26.4 11.2 26.7 9.1 26.8 8.7"/><polygon class="cls-4" points="19.6 29.5 12.2 29.5 10.7 8.7 21.1 8.7 19.6 29.5"/><polygon class="cls-2" points="26.8 43.1 5 43.1 8.2 31.2 23.6 31.2 26.8 43.1"/><polygon class="cls-4" points="21.1 43.1 10.7 43.1 12.2 31.2 19.6 31.2 21.1 43.1"/><rect class="cls-5" x="10.1" y="29.5" width="11.8" height="1.7"/><path class="cls-6" d="M32.7,11.2a.52.52,0,0,1-.1.8.86.86,0,0,1-.9-.3.52.52,0,0,1,.1-.8A1,1,0,0,1,32.7,11.2Z" transform="translate(-15.6 -10.5)"/><polygon class="cls-8" points="10.1 29.5 21.9 31.2 21.9 29.5 10.1 29.5"/></svg>