<svg id="ART" xmlns="http://www.w3.org/2000/svg" viewBox="0 0 94.26 143.43"><defs><style>.cls-1,.cls-4{fill:#acb3ba;}.cls-1{stroke:#5b5b5b;}.cls-1,.cls-3,.cls-6,.cls-8{stroke-miterlimit:10;}.cls-1,.cls-3{stroke-width:4px;}.cls-2{fill:#72767a;}.cls-3{fill:#d1d1d1;stroke:#757677;}.cls-5{fill:#6ca3c1;}.cls-6{fill:#fff;stroke:#e2e2e2;}.cls-7{fill:none;stroke:#8e959b;stroke-linecap:round;stroke-linejoin:round;}.cls-7,.cls-8{stroke-width:2px;}.cls-8{fill:#6b6e70;stroke:#3a3c3d;}.cls-9{fill:#212121;}</style></defs><title>iconfinder_icon_animal_coelho_3316539</title><path id="_Path_" data-name=" Path " class="cls-1" d="M81.06,48.54c-6.11,25.87-4,48.51,4.8,50.57S109.3,66.37,112.78,56s4-48.51-4.8-50.57S87.16,22.67,81.06,48.54Z" transform="translate(-27.87 -3.28)"/><path id="_Path_2" data-name=" Path 2" class="cls-1" d="M68.94,48.54c6.11,25.87,4,48.51-4.8,50.57S40.7,66.37,37.22,56,33.27,7.5,42,5.44,62.84,22.67,68.94,48.54Z" transform="translate(-27.87 -3.28)"/><path class="cls-2" d="M110.88,55.38A185,185,0,0,1,99.77,80.89C98,61.93,102.49,33.78,108.45,8a6.67,6.67,0,0,1,1,1.41C114.48,18.39,113.59,47.3,110.88,55.38Z" transform="translate(-27.87 -3.28)"/><path class="cls-2" d="M50.23,80.89A185,185,0,0,1,39.12,55.38c-2.71-8.08-3.6-37,1.41-46a6.67,6.67,0,0,1,1-1.41C47.51,33.78,52,61.93,50.23,80.89Z" transform="translate(-27.87 -3.28)"/><path id="_Path_3" data-name=" Path 3" class="cls-3" d="M75,144.71c-26,0-54-20.33-42.45-47.51C42.93,72.88,49,49.68,75,49.68s32.07,23.2,42.45,47.51C129,124.38,101.05,144.71,75,144.71Z" transform="translate(-27.87 -3.28)"/><path class="cls-4" d="M118.27,112.06a27.2,27.2,0,0,1-4.33,12.06c-7.41,11.49-23.06,19.21-38.93,19.21s-31.52-7.72-38.93-19.21a27.2,27.2,0,0,1-4.33-12.06c12-5.91,27-9.28,43.28-9.28S106.28,106.15,118.27,112.06Z" transform="translate(-27.87 -3.28)"/><ellipse class="cls-5" cx="26.95" cy="87.28" rx="4.49" ry="4.75"/><path class="cls-6" d="M75,121.87v5a3,3,0,0,1-3,3h-.39a3,3,0,0,1-3-3h0V124" transform="translate(-27.87 -3.28)"/><path class="cls-6" d="M75,120.87v6a3,3,0,0,0,3,3h.39a3,3,0,0,0,3-3h0V124" transform="translate(-27.87 -3.28)"/><path class="cls-7" d="M61.07,122.89C64.75,126,75,123,75,120.45" transform="translate(-27.87 -3.28)"/><path class="cls-7" d="M88.93,122.89C85.25,126,75,123,75,120.45" transform="translate(-27.87 -3.28)"/><path class="cls-8" d="M83,115c0,4.44-6.4,5.43-8.11,5.41s-8-1.15-8-5.6,3.75-13.09,8.2-13S83.06,110.59,83,115Z" transform="translate(-27.87 -3.28)"/><ellipse class="cls-9" cx="67.31" cy="87.28" rx="4.8" ry="8.54"/><ellipse class="cls-9" cx="26.95" cy="87.28" rx="4.8" ry="8.54"/></svg>